Coordinates
version=1
nRows=37
nColumns=11
inDegrees=yes

Units are S.I. units (second, meters, Newtons, ...)
If the header above contains a line with 'inDegrees', this indicates whether rotational values are in degrees (yes) or radians (no).

endheader
time	pelvis_tilt	pelvis_tx	pelvis_ty	hip_flexion_l	hip_flexion_r	knee_angle_l	knee_angle_r	ankle_angle_l	ankle_angle_r	lumbar_extension
      2.83000000	     -0.96733931	      0.41931404	      0.91617484	     35.21721819	      0.25926490	    -41.00288026	    -22.44884104	     -1.44661952	      2.26743982	     -4.50003586
      2.84000000	     -0.86880902	      0.43071991	      0.91536849	     35.37673775	     -0.46285404	    -38.33325755	    -22.70805764	     -1.61447357	      2.16103133	     -4.71210081
      2.85000000	     -0.70452511	      0.44228045	      0.91452368	     35.36294656	     -1.34578473	    -35.59777840	    -22.85668391	     -1.72550423	      2.13947965	     -4.95599919
      2.86000000	     -0.58600401	      0.45404907	      0.91339917	     35.31901792	     -2.12250489	    -32.85209330	    -23.18233171	     -1.84033777	      2.22745996	     -5.14787363
      2.87000000	     -0.47497508	      0.46592657	      0.91212411	     35.20476877	     -2.96951955	    -30.12160349	    -23.31191352	     -2.11151706	      2.14863996	     -5.34340301
      2.88000000	     -0.38257848	      0.47780242	      0.91064748	     35.08690125	     -3.76128667	    -27.49456582	    -23.51055853	     -2.51959590	      1.99334547	     -5.47990886
      2.89000000	     -0.28706184	      0.48991560	      0.90908558	     34.93308097	     -4.60651610	    -25.02209865	    -23.66638210	     -2.97571940	      1.95799229	     -5.64437556
      2.90000000	     -0.22973679	      0.50203331	      0.90728973	     34.79530393	     -5.37586543	    -22.78216273	    -23.88628179	     -3.41664998	      1.93307512	     -5.75634799
      2.91000000	     -0.20859144	      0.51405091	      0.90528845	     34.73233624	     -6.08525133	    -20.90748752	    -24.12488291	     -3.47055515	      1.92356122	     -5.84398380
      2.92000000	     -0.15829932	      0.52633427	      0.90326110	     34.64996520	     -6.88111797	    -19.44662898	    -24.30162756	     -3.42120850	      1.82254578	     -5.95612523
      2.93000000	     -0.03441151	      0.53913093	      0.90129188	     34.50341052	     -7.85641367	    -18.44641010	    -24.32392515	     -3.17971627	      1.62712858	     -6.08897252
      2.94000000	     -0.02891661	      0.55175848	      0.89906212	     34.56439020	     -8.63304884	    -17.95796070	    -24.44950830	     -2.89508717	      1.33474411	     -6.12964348
      2.95000000	     -0.07247662	      0.56467341	      0.89673551	     34.66631721	     -9.37816564	    -17.91143667	    -24.60160215	     -2.71197579	      1.10805582	     -6.06090414
      2.96000000	     -0.17517289	      0.57780440	      0.89435477	     34.86374736	    -10.10189487	    -18.34164980	    -24.63622622	     -2.58117576	      0.70854474	     -5.94752965
      2.97000000	     -0.26303208	      0.59131840	      0.89197987	     35.00151342	    -10.88578588	    -19.14100490	    -24.61790989	     -2.45826415	      0.17597239	     -5.76338011
      2.98000000	     -0.43490606	      0.60533473	      0.88952053	     35.17633376	    -11.61224868	    -20.29255065	    -24.57625744	     -2.46383408	     -0.45390667	     -5.44552776
      2.99000000	     -0.91967776	      0.61866666	      0.88703904	     35.87641688	    -11.87464878	    -21.82292948	    -24.62067773	     -5.04734280	     -1.26647577	     -4.87209619
      3.00000000	     -1.53749934	      0.63162474	      0.88496021	     37.05243821	    -11.86333652	    -24.10355812	    -24.79429485	     -6.15708668	     -2.34585378	     -4.21992031
      3.01000000	     -2.06896583	      0.64505178	      0.88309606	     38.51377119	    -11.95494202	    -27.31554233	    -24.96935861	     -4.46801712	     -3.53061972	     -3.53463161
      3.02000000	     -2.40253372	      0.65885653	      0.88165263	     39.75289763	    -12.23089061	    -30.35774081	    -25.14683104	     -3.47587971	     -4.98421333	     -3.05374164
      3.03000000	     -2.55290955	      0.67270964	      0.88061560	     40.38574154	    -12.63538317	    -32.47407387	    -25.38734252	     -3.83277909	     -6.56002825	     -2.75798876
      3.04000000	     -2.54426753	      0.68663587	      0.88006371	     40.42023439	    -13.12184017	    -33.73282218	    -25.68850879	     -4.78165996	     -8.52971585	     -2.67092592
      3.05000000	     -2.66955318	      0.70067501	      0.87971548	     40.39346672	    -13.33223863	    -34.91092623	    -26.18391868	     -4.19756232	    -10.67747074	     -2.39542505
      3.06000000	     -2.83612846	      0.71469224	      0.87983196	     40.29264002	    -13.30969701	    -36.22273215	    -26.90746911	     -2.93646538	    -12.98858254	     -2.06728924
      3.07000000	     -3.14353383	      0.72875253	      0.88024733	     40.22246620	    -12.99284033	    -37.27918892	    -27.75516719	     -1.91952921	    -15.41561974	     -1.56499003
      3.08000000	     -3.49407336	      0.74259696	      0.88098962	     40.10909344	    -12.41125493	    -38.14915999	    -28.77298262	     -0.85116483	    -18.06436434	     -1.03639758
      3.09000000	     -3.79342292	      0.75633913	      0.88210092	     39.84487439	    -11.70482753	    -38.84406019	    -29.98585100	      0.15895343	    -20.64566330	     -0.56340707
      3.10000000	     -3.99734402	      0.76971728	      0.88358763	     39.40849365	    -10.89955484	    -39.36714161	    -31.48606604	      1.08060119	    -22.89110805	     -0.23951471
      3.11000000	     -4.16211132	      0.78263953	      0.88533324	     38.81757748	     -9.90696733	    -39.68617853	    -33.22775449	      2.03799196	    -24.94169670	     -0.03382282
      3.12000000	     -4.43100871	      0.79509552	      0.88709734	     38.21848854	     -8.59231614	    -39.74289328	    -35.22677085	      2.82115289	    -25.85918255	      0.26994294
      3.13000000	     -4.48770257	      0.80782052	      0.88930650	     37.38821268	     -7.47860012	    -39.80887895	    -37.17630069	      3.64835735	    -25.79718883	      0.37426108
      3.14000000	     -4.62098195	      0.81996824	      0.89147104	     36.60227508	     -6.09914853	    -39.73656081	    -39.13959842	      4.46996019	    -24.77945602	      0.49877892
      3.15000000	     -4.74803134	      0.83197700	      0.89377019	     35.78143660	     -4.67852390	    -39.58178811	    -40.86734836	      5.07007291	    -23.43861851	      0.62545326
      3.16000000	     -4.82062959	      0.84382187	      0.89622686	     34.82274219	     -3.27098827	    -39.27682103	    -42.38603136	      5.66159634	    -22.02062457	      0.68052660
      3.17000000	     -4.90924833	      0.85552214	      0.89881136	     33.81727818	     -1.77853645	    -38.83127205	    -43.73663057	      6.18253079	    -20.57559235	      0.76084093
      3.18000000	     -4.99570222	      0.86697053	      0.90136924	     32.82517767	     -0.20499475	    -38.37954528	    -44.99219817	      6.68585164	    -19.09517108	      0.81887803
      3.19000000	     -4.95936904	      0.87854883	      0.90419311	     31.59946230	      1.24117660	    -37.75886063	    -46.03594416	      7.14417621	    -17.69527169	      0.75751483
